<?xml version="1.0" ?><svg height="24px" version="1.1" viewBox="0 0 24 24" width="24px" xmlns="http://www.w3.org/2000/svg" xmlns:sketch="http://www.bohemiancoding.com/sketch/ns" xmlns:xlink="http://www.w3.org/1999/xlink"><title/><desc/><defs/><g fill="none" fill-rule="evenodd" id="miu" stroke="none" stroke-width="1"><g id="Artboard-1" transform="translate(-827.000000, -479.000000)"><g id="slice" transform="translate(215.000000, 119.000000)"/><path d="M831.110887,492.334978 C831.746335,496.117787 835.036579,499 839,499 C842.963421,499 846.253665,496.117787 846.889113,492.334978 C845.357812,495.115827 842.398942,497 839,497 C835.601058,497 832.642188,495.115827 831.110887,492.334978 L831.110887,492.334978 Z M831.110887,495.334978 C831.746335,499.117787 835.036579,502 839,502 C842.963421,502 846.253665,499.117787 846.889113,495.334978 C845.357812,498.115827 842.398942,500 839,500 C835.601058,500 832.642188,498.115827 831.110887,495.334978 L831.110887,495.334978 Z M847,488 C847,483.581722 843.418278,480 839,480 C834.581722,480 831,483.581722 831,488 C831,492.418278 834.581722,496 839,496 C843.418278,496 847,492.418278 847,488 Z M839.381764,484.5 L839.381764,485.190836 C839.618238,485.235482 839.811622,485.327123 839.961924,485.46576 C840.112225,485.604398 840.25551,485.817051 840.391784,486.103726 L839.805611,486.487915 C839.629258,486.111948 839.398799,485.923968 839.114228,485.923968 C838.937875,485.923968 838.791584,485.985061 838.675351,486.107251 C838.559118,486.22944 838.501002,486.382174 838.501002,486.565458 C838.501002,486.732294 838.548096,486.870929 838.642285,486.98137 C838.734469,487.08946 838.92084,487.217522 839.201403,487.365559 C839.443889,487.494798 839.644288,487.616398 839.802605,487.730363 C839.960923,487.844328 840.08016,487.954179 840.160321,488.059919 C840.386775,488.346594 840.5,488.693184 840.5,489.099698 C840.5,489.499163 840.397797,489.851627 840.193387,490.1571 C839.990981,490.460223 839.720443,490.664652 839.381764,490.770393 L839.381764,491.5 L838.855711,491.5 L838.855711,490.791541 C838.462924,490.716347 838.163328,490.557739 837.956914,490.31571 C837.7505,490.073681 837.598197,489.70007 837.5,489.194864 L838.161323,489.032729 C838.251503,489.389898 838.361723,489.644847 838.491984,489.797583 C838.628257,489.94327 838.809618,490.016113 839.036072,490.016113 C839.256514,490.016113 839.440881,489.932696 839.589178,489.765861 C839.735472,489.601375 839.808617,489.388722 839.808617,489.127895 C839.808617,488.895266 839.747496,488.70846 839.625251,488.567472 C839.563126,488.499328 839.471443,488.422374 839.3502,488.336606 C839.228957,488.250839 839.074149,488.157436 838.885772,488.056395 C838.496992,487.851963 838.241484,487.663982 838.119238,487.492447 C837.924849,487.23632 837.827655,486.929676 837.827655,486.572508 C837.827655,486.403322 837.850701,486.245889 837.896794,486.100201 C837.942886,485.954514 838.009519,485.82234 838.096693,485.703676 C838.183868,485.585011 838.291583,485.482209 838.41984,485.395267 C838.548097,485.308325 838.693386,485.240182 838.855711,485.190836 L838.855711,484.5 L839.381764,484.5 Z" fill="#000000" id="business-coins-money-stack-salary-glyph"/></g></g></svg>